# xmcd
#
# Track frame offsets:
#	150
#	17121
#	29961
#	45950
#	59819
#	73455
#	89045
#	103991
#	120726
#	133280
#	152378
#	166808
#	177202
#	197553
#	215093
#
# Disc length: 3118 seconds
#
# Revision: 0
# Processed by: cddbd v1.4PL0 Copyright (c) Steve Scherf et al.
# Submitted via: EasyCDDAExtractor 4.5.0.2
#
DISCID=e80c2c0f
DTITLE=Edwin Kimmler - It's Surprising
DYEAR=1900
DGENRE=
TTITLE0=Take me to the other Side
TTITLE1=Strangers
TTITLE2=Variation on Revelation
TTITLE3=Something I need
TTITLE4=Working at the Clubtown
TTITLE5=Split
TTITLE6=World of Cold
TTITLE7=Falling
TTITLE8=Move your Body
TTITLE9=See Me
TTITLE10=Sing, sing, sing
TTITLE11=Strong
TTITLE12=It's Surprising
TTITLE13=Hometown
TTITLE14=For a Friend
EXTD=
EXTT0=
EXTT1=
EXTT2=
EXTT3=
EXTT4=
EXTT5=
EXTT6=
EXTT7=
EXTT8=
EXTT9=
EXTT10=
EXTT11=
EXTT12=
EXTT13=
EXTT14=
PLAYORDER=
